<svg xmlns="http://www.w3.org/2000/svg" viewBox="0 0 360 420" role="img" aria-label="黒猫シルエット">
  <path fill="#050505" stroke="#ff2b9f" stroke-width="5" d="M122 135 82 50l78 49c13-5 26-7 40-7s28 2 40 7l78-49-40 85c29 31 45 78 45 132 0 91-55 139-123 139S77 358 77 267c0-54 16-101 45-132Z"/>
  <path fill="none" stroke="#ff2b9f" stroke-width="9" stroke-linecap="round" d="m134 189 28 28m0-28-28 28"/>
  <path fill="#ff2b9f" d="M231 203c16-20 43-19 56 0-16 22-41 22-56 0Z"/>
  <path fill="none" stroke="#f4f0e8" stroke-width="5" stroke-linecap="round" d="M180 246c12 15 28 15 40 0M92 228c-38-12-66-12-86 0M96 253c-41 3-69 13-86 32M264 228c38-12 66-12 86 0M260 253c41 3 69 13 86 32"/>
  <path fill="none" stroke="#ff2b9f" stroke-width="18" stroke-linecap="round" d="M284 344c56-5 74-80 22-96"/>
</svg>
